<?xml version="1.0" encoding="UTF-8" standalone="no"?>
<!-- Created with Inkscape (http://www.inkscape.org/) -->

<svg
   xmlns:dc="http://purl.org/dc/elements/1.1/"
   xmlns:cc="http://creativecommons.org/ns#"
   xmlns:rdf="http://www.w3.org/1999/02/22-rdf-syntax-ns#"
   xmlns:svg="http://www.w3.org/2000/svg"
   xmlns="http://www.w3.org/2000/svg"
   xmlns:sodipodi="http://sodipodi.sourceforge.net/DTD/sodipodi-0.dtd"
   xmlns:inkscape="http://www.inkscape.org/namespaces/inkscape"
   width="450"
   height="150"
   viewBox="0 0 119.0625 39.687501"
   version="1.1"
   id="svg1459"
   inkscape:export-filename="D:\COLEGIO DE CONTADORES\FRONTED\images\header-logo.png"
   inkscape:export-xdpi="96"
   inkscape:export-ydpi="96"
   inkscape:version="0.92.4 (5da689c313, 2019-01-14)"
   sodipodi:docname="header-logo.svg">
  <defs
     id="defs1453">
    <marker
       inkscape:stockid="Arrow1Lend"
       orient="auto"
       refY="0.0"
       refX="0.0"
       id="Arrow1Lend"
       style="overflow:visible;"
       inkscape:isstock="true">
      <path
         id="path3710"
         d="M 0.0,0.0 L 5.0,-5.0 L -12.5,0.0 L 5.0,5.0 L 0.0,0.0 z "
         style="fill-rule:evenodd;stroke:#000000;stroke-width:1.0pt;"
         transform="scale(0.8) rotate(180) translate(12.5,0)" />
    </marker>
    <marker
       inkscape:stockid="Arrow1Lstart"
       orient="auto"
       refY="0.0"
       refX="0.0"
       id="Arrow1Lstart"
       style="overflow:visible"
       inkscape:isstock="true">
      <path
         id="path3707"
         d="M 0.0,0.0 L 5.0,-5.0 L -12.5,0.0 L 5.0,5.0 L 0.0,0.0 z "
         style="fill-rule:evenodd;stroke:#000000;stroke-width:1.0pt"
         transform="scale(0.8) translate(12.5,0)" />
    </marker>
    <ellipse
       transform="matrix(-0.96115505,0.27600902,-0.27811009,-0.96054921,0,0)"
       ry="55.563599"
       rx="56.98315"
       cy="-118.60909"
       cx="-68.954666"
       id="path866"
       style="fill:#ffffff;fill-opacity:1;stroke:#e7354e;stroke-width:0;stroke-miterlimit:4;stroke-dasharray:none;stroke-dashoffset:0;stroke-opacity:0.00392157" />
    <clipPath
       clipPathUnits="userSpaceOnUse"
       id="clipPath3699">
      <g
         inkscape:label="Clip"
         id="use3701"
         style="fill:#800080;fill-opacity:1">
        <text
           transform="scale(1.051464,0.95105491)"
           id="text3992"
           y="293.75836"
           x="40.68726"
           style="font-style:normal;font-variant:normal;font-weight:bold;font-stretch:normal;font-size:15.39233875px;line-height:1.25;font-family:sans-serif;-inkscape-font-specification:'sans-serif, Bold';font-variant-ligatures:normal;font-variant-caps:normal;font-variant-numeric:normal;font-feature-settings:normal;text-align:start;letter-spacing:0px;word-spacing:0px;writing-mode:lr-tb;text-anchor:start;fill:#800080;fill-opacity:1;stroke:none;stroke-width:0.38480842"
           xml:space="preserve"><tspan
             style="font-style:normal;font-variant:normal;font-weight:bold;font-stretch:normal;font-size:15.39233875px;font-family:sans-serif;-inkscape-font-specification:'sans-serif, Bold';font-variant-ligatures:normal;font-variant-caps:normal;font-variant-numeric:normal;font-feature-settings:normal;text-align:start;writing-mode:lr-tb;text-anchor:start;fill:#800080;fill-opacity:1;stroke-width:0.38480842"
             y="293.75836"
             x="40.68726"
             id="tspan3990"
             sodipodi:role="line">CORLAD</tspan></text>
        <text
           transform="scale(0.97273701,1.0280271)"
           id="text3996"
           y="276.30698"
           x="91.08886"
           style="font-style:normal;font-weight:normal;font-size:5.18538189px;line-height:1.25;font-family:sans-serif;letter-spacing:0px;word-spacing:0px;fill:#800080;fill-opacity:1;stroke:none;stroke-width:0.12963454"
           xml:space="preserve"><tspan
             style="fill:#800080;fill-opacity:1;stroke-width:0.12963454"
             y="276.30698"
             x="91.08886"
             id="tspan3994"
             sodipodi:role="line">AYACUCHO</tspan></text>
      </g>
    </clipPath>
  </defs>
  <sodipodi:namedview
     id="base"
     pagecolor="#ffffff"
     bordercolor="#666666"
     borderopacity="1.0"
     inkscape:pageopacity="0.0"
     inkscape:pageshadow="2"
     inkscape:zoom="1.4"
     inkscape:cx="347.39359"
     inkscape:cy="-137.94715"
     inkscape:document-units="mm"
     inkscape:current-layer="layer1"
     showgrid="false"
     units="px"
     inkscape:window-width="1920"
     inkscape:window-height="1017"
     inkscape:window-x="-8"
     inkscape:window-y="-8"
     inkscape:window-maximized="1" />
  <metadata
     id="metadata1456">
    <rdf:RDF>
      <cc:Work
         rdf:about="">
        <dc:format>image/svg+xml</dc:format>
        <dc:type
           rdf:resource="http://purl.org/dc/dcmitype/StillImage" />
        <dc:title></dc:title>
      </cc:Work>
    </rdf:RDF>
  </metadata>
  <g
     inkscape:label="Layer 1"
     inkscape:groupmode="layer"
     id="layer1"
     transform="translate(0,-257.31249)">
    <path
       id="path826"
       style="fill:#ececec;fill-opacity:1;stroke-width:0.13083608"
       d="m 23.897784,257.79946 c -1.155831,0.0639 -2.866222,0.32136 -4.003247,0.65693 -2.953904,0.87175 -6.226918,2.99635 -8.025202,5.20983 -3.9348127,4.8433 -4.9572664,10.89635 -2.8113507,16.64309 0.4266216,1.14249 1.4364427,3.07654 2.0094367,3.84883 0.267538,0.36064 0.398821,0.35412 0.571188,-0.0288 0.141271,-0.31379 2.994462,-5.82709 5.996959,-11.58811 0.949259,-1.82138 2.512955,-4.83196 3.474919,-6.69013 0.96197,-1.85817 2.272513,-4.37458 2.91236,-5.59193 0.639854,-1.21735 1.140476,-2.27048 1.112628,-2.34026 -0.05042,-0.12629 -0.544193,-0.15785 -1.237695,-0.11954 z m 9.353677,2.38064 0.131672,0.83549 c 0.07228,0.45946 0.356496,2.11986 0.631714,3.68961 0.775365,4.42242 1.293784,7.42068 1.491671,8.62838 0.168354,1.02755 0.337589,1.98063 0.78382,4.41026 0.09824,0.53488 0.361023,2.05292 0.583831,3.37348 0.222809,1.32051 0.458218,2.68004 0.523112,3.02145 0.0649,0.34139 0.168245,0.60063 0.229683,0.57609 0.244015,-0.0976 1.589254,-2.29291 2.083624,-3.40056 1.033659,-2.31599 1.435278,-4.11664 1.505002,-6.74621 0.03843,-1.44974 7.6e-5,-1.85349 -0.323116,-3.38866 -0.201797,-0.95853 -0.54045,-2.19218 -0.752497,-2.74136 -0.493203,-1.27724 -1.681892,-3.34237 -2.529423,-4.39467 -0.843953,-1.04784 -2.515633,-2.6072 -3.552188,-3.31345 z m -5.966218,0.3908 c -0.214703,-10e-4 -0.581128,0.58358 -1.498756,2.34256 -0.633478,1.2143 -1.588902,3.02958 -2.123215,4.03386 -0.534321,1.00427 -1.913832,3.65024 -3.065531,5.87988 -1.151693,2.22966 -2.216107,4.26746 -2.365183,4.52845 -0.149064,0.26096 -0.609135,1.14297 -1.022439,1.96 -0.4133,0.81699 -1.362238,2.67112 -2.108704,4.12027 -1.789141,3.47338 -1.65448,3.11932 -1.324283,3.48172 0.231996,0.25464 0.297461,0.27273 0.387414,0.10751 0.494545,-0.90876 2.970379,-5.50618 3.604754,-6.69359 0.437228,-0.81839 0.967246,-1.79294 1.177593,-2.16561 0.210341,-0.3727 1.089342,-1.98685 1.95346,-3.58705 0.864124,-1.60016 1.917651,-3.54887 2.341157,-4.33042 0.423504,-0.78159 0.928628,-1.71383 1.122415,-2.07155 0.694831,-1.28266 1.566122,-1.67593 2.375367,-1.07186 0.624989,0.46653 0.623521,0.46033 1.743769,7.22809 0.290999,1.75801 0.983942,5.78028 1.19593,6.94184 0.110646,0.60626 0.281286,1.56941 0.379046,2.14036 0.09776,0.57097 0.318092,1.8556 0.489573,2.85473 0.171492,0.99915 0.36661,2.15255 0.433657,2.56312 0.133918,0.8203 0.238043,0.88006 0.874533,0.50239 0.205548,-0.12192 0.36713,-0.32307 0.358917,-0.44687 -0.0082,-0.12392 -0.198303,-1.30527 -0.422465,-2.6257 -0.224153,-1.32045 -0.486671,-2.86804 -0.583558,-3.43902 -0.09689,-0.57101 -0.365672,-2.14769 -0.597319,-3.50373 -0.231649,-1.35607 -0.504546,-2.96197 -0.606231,-3.56875 -1.238481,-7.39022 -2.579527,-15.0946 -2.636171,-15.14499 -0.02565,-0.0228 -0.05308,-0.0351 -0.08373,-0.0355 z m -3.033267,11.8299 c -0.169758,0.0351 -0.602095,0.75026 -1.325607,2.19089 -0.20511,0.40843 -0.733746,1.41237 -1.174803,2.23102 -0.441059,0.81864 -1.125086,2.09704 -1.52011,2.84088 -0.395022,0.74389 -1.156324,2.17424 -1.691883,3.17859 -0.535562,1.00436 -1.170388,2.22092 -1.410638,2.70349 -0.240249,0.48253 -0.672283,1.29759 -0.959957,1.81119 l -0.523,0.93385 0.345301,0.30701 c 0.193065,0.17172 0.428131,0.26978 0.53311,0.22229 0.10326,-0.0467 0.571481,-0.8635 1.040597,-1.8154 1.320816,-2.68009 3.784176,-7.72609 4.137421,-8.47528 0.598897,-1.27017 1.385865,-1.68312 1.963871,-1.03046 0.291941,0.32969 0.309569,0.41064 0.837181,3.88138 0.821011,5.40083 1.015869,6.72278 1.180185,8.00152 0.09725,0.75688 0.221441,1.4396 0.275881,1.51718 0.109465,0.15605 1.37525,-0.009 1.565446,-0.20344 0.06537,-0.0671 -0.01332,-0.74365 -0.19107,-1.64295 -0.166291,-0.84094 -0.437308,-2.28778 -0.602245,-3.21523 -0.164941,-0.92745 -0.598602,-3.34966 -0.963677,-5.3827 -0.365072,-2.03305 -0.818806,-4.63102 -1.008217,-5.77332 -0.189411,-1.14224 -0.392482,-2.15666 -0.451213,-2.25415 -0.01351,-0.0224 -0.03233,-0.0314 -0.05656,-0.0265 z m -2.435623,8.67854 c -0.08504,0.007 -0.381614,0.62104 -1.268076,2.62861 -0.294025,0.66589 -0.996695,2.21656 -1.56134,3.44611 -0.564634,1.22958 -1.023114,2.29509 -1.018868,2.36782 0.01806,0.3101 3.222092,1.22752 4.79826,1.37392 0.512203,0.0475 0.590845,-0.0128 0.542388,-0.41712 -0.129791,-1.08277 -0.776619,-5.44485 -0.932248,-6.28762 -0.09875,-0.53485 -0.246787,-1.45511 -0.329195,-2.04497 -0.0824,-0.58988 -0.186323,-1.06984 -0.230921,-1.06675 z"
       inkscape:connector-curvature="0"
       inkscape:export-xdpi="96"
       inkscape:export-ydpi="96" />
    <text
       transform="scale(1.051464,0.95105491)"
       id="text873"
       y="287.56934"
       x="40.20631"
       style="font-style:normal;font-variant:normal;font-weight:bold;font-stretch:normal;font-size:15.99867725px;line-height:1.25;font-family:sans-serif;-inkscape-font-specification:'sans-serif, Bold';font-variant-ligatures:normal;font-variant-caps:normal;font-variant-numeric:normal;font-feature-settings:normal;text-align:start;letter-spacing:0px;word-spacing:0px;writing-mode:lr-tb;text-anchor:start;fill:#ffffff;fill-opacity:1;stroke:none;stroke-width:0.39996684"
       xml:space="preserve"
       inkscape:export-xdpi="96"
       inkscape:export-ydpi="96"><tspan
         style="font-style:normal;font-variant:normal;font-weight:bold;font-stretch:normal;font-size:15.99867725px;font-family:sans-serif;-inkscape-font-specification:'sans-serif, Bold';font-variant-ligatures:normal;font-variant-caps:normal;font-variant-numeric:normal;font-feature-settings:normal;text-align:start;writing-mode:lr-tb;text-anchor:start;fill:#ffffff;fill-opacity:1;stroke-width:0.39996684"
         y="287.56934"
         x="40.20631"
         id="tspan871"
         sodipodi:role="line">CORLAD</tspan></text>
    <text
       transform="scale(0.97273701,1.0280271)"
       id="text886"
       y="275.7005"
       x="66.70961"
       style="font-style:normal;font-weight:normal;font-size:10.04939365px;line-height:1.25;font-family:sans-serif;letter-spacing:0px;word-spacing:0px;fill:#ffffff;fill-opacity:1;stroke:none;stroke-width:0.25123483"
       xml:space="preserve"
       inkscape:export-xdpi="96"
       inkscape:export-ydpi="96"><tspan
         style="fill:#ffffff;fill-opacity:1;stroke-width:0.25123483"
         y="275.7005"
         x="66.70961"
         id="tspan884"
         sodipodi:role="line">AYACUCHO</tspan></text>
  </g>
</svg>
